<svg width="41" height="32" viewBox="0 0 41 32" fill="none" xmlns="http://www.w3.org/2000/svg">
<path d="M35.2807 6.61522C35.2807 6.84263 35.1903 7.06072 35.0295 7.22152C34.8687 7.38233 34.6506 7.47266 34.4232 7.47266H15.6446C15.4172 7.47266 15.199 7.38233 15.0382 7.22152C14.8774 7.06072 14.7871 6.84263 14.7871 6.61522C14.7871 6.38781 14.8774 6.16971 15.0382 6.00891C15.199 5.8481 15.4172 5.75777 15.6446 5.75777H34.4232C34.6506 5.75777 34.8687 5.8481 35.0295 6.00891C35.1903 6.16971 35.2807 6.38781 35.2807 6.61522ZM15.6446 12.1415H21.2953C21.5227 12.1415 21.7408 12.0511 21.9016 11.8903C22.0624 11.7295 22.1528 11.5114 22.1528 11.284C22.1528 11.0566 22.0624 10.8385 21.9016 10.6777C21.7408 10.5169 21.5227 10.4266 21.2953 10.4266H15.6446C15.4172 10.4266 15.199 10.5169 15.0382 10.6777C14.8774 10.8385 14.7871 11.0566 14.7871 11.284C14.7871 11.5114 14.8774 11.7295 15.0382 11.8903C15.199 12.0511 15.4172 12.1415 15.6446 12.1415ZM15.6446 16.7974H21.2953C21.5227 16.7974 21.7408 16.7071 21.9016 16.5463C22.0624 16.3855 22.1528 16.1674 22.1528 15.94C22.1528 15.7126 22.0624 15.4945 21.9016 15.3337C21.7408 15.1729 21.5227 15.0825 21.2953 15.0825H15.6446C15.4172 15.0825 15.199 15.1729 15.0382 15.3337C14.8774 15.4945 14.7871 15.7126 14.7871 15.94C14.7871 16.1674 14.8774 16.3855 15.0382 16.5463C15.199 16.7071 15.4172 16.7974 15.6446 16.7974ZM15.6446 21.4534H21.2953C21.5227 21.4534 21.7408 21.363 21.9016 21.2022C22.0624 21.0414 22.1528 20.8233 22.1528 20.5959C22.1528 20.3685 22.0624 20.1504 21.9016 19.9896C21.7408 19.8288 21.5227 19.7385 21.2953 19.7385H15.6446C15.4172 19.7385 15.199 19.8288 15.0382 19.9896C14.8774 20.1504 14.7871 20.3685 14.7871 20.5959C14.7871 20.8233 14.8774 21.0414 15.0382 21.2022C15.199 21.363 15.4172 21.4534 15.6446 21.4534ZM34.4232 24.3944H15.6446C15.4172 24.3944 15.199 24.4848 15.0382 24.6456C14.8774 24.8064 14.7871 25.0245 14.7871 25.2519C14.7871 25.4793 14.8774 25.6974 15.0382 25.8582C15.199 26.019 15.4172 26.1093 15.6446 26.1093H34.4232C34.6506 26.1093 34.8687 26.019 35.0295 25.8582C35.1903 25.6974 35.2807 25.4793 35.2807 25.2519C35.2807 25.0245 35.1903 24.8064 35.0295 24.6456C34.8687 24.4848 34.6506 24.3944 34.4232 24.3944ZM35.2807 11.2797V20.5873C35.2807 20.8148 35.1903 21.0328 35.0295 21.1936C34.8687 21.3545 34.6506 21.4448 34.4232 21.4448H26.0757C25.8483 21.4448 25.6302 21.3545 25.4694 21.1936C25.3086 21.0328 25.2182 20.8148 25.2182 20.5873V11.284C25.2182 11.0566 25.3086 10.8385 25.4694 10.6777C25.6302 10.5169 25.8483 10.4266 26.0757 10.4266H34.4232C34.6506 10.4266 34.8687 10.5169 35.0295 10.6777C35.1903 10.8385 35.2807 11.0566 35.2807 11.284V11.2797ZM33.5657 12.1372H26.9332V19.7299H33.5657V12.1372ZM0 26.6109V9.89067C3.38876e-09 9.66326 0.0903405 9.44516 0.251148 9.28436C0.411955 9.12356 0.630056 9.03322 0.857471 9.03322C1.08489 9.03322 1.30299 9.12356 1.4638 9.28436C1.6246 9.44516 1.71494 9.66326 1.71494 9.89067V26.6109C1.74748 27.5631 2.14862 28.4654 2.83372 29.1275C3.51882 29.7895 4.43432 30.1596 5.38706 30.1596C6.33981 30.1596 7.25531 29.7895 7.94041 29.1275C8.62551 28.4654 9.02665 27.5631 9.05919 26.6109V0.857449C9.05919 0.630039 9.14953 0.411943 9.31033 0.251141C9.47114 0.0903378 9.68924 0 9.91666 0H40.1425C40.3699 0 40.588 0.0903378 40.7489 0.251141C40.9097 0.411943 41 0.630039 41 0.857449V27.374C41.0006 27.9824 40.881 28.5849 40.6482 29.147C40.4154 29.709 40.0739 30.2196 39.6433 30.6494C39.2127 31.0792 38.7015 31.4197 38.139 31.6515C37.5765 31.8832 36.9737 32.0017 36.3654 32H5.38921C3.96025 31.9988 2.59014 31.4307 1.57972 30.4203C0.56929 29.4099 0.00113545 28.0398 0 26.6109ZM9.325 30.2851H36.3654C36.7471 30.2851 37.1251 30.2099 37.4778 30.0638C37.8304 29.9177 38.1509 29.7036 38.4208 29.4337C38.6907 29.1638 38.9048 28.8434 39.0509 28.4907C39.197 28.138 39.2722 27.7601 39.2722 27.3783V1.7149H10.7784V26.6109C10.7799 27.9753 10.2618 29.289 9.32929 30.2851H9.325ZM4.53174 10.0707V26.5981C4.53174 26.8255 4.62208 27.0436 4.78288 27.2044C4.94369 27.3652 5.16179 27.4555 5.38921 27.4555C5.61662 27.4555 5.83472 27.3652 5.99553 27.2044C6.15634 27.0436 6.24668 26.8255 6.24668 26.5981V10.0707C6.24668 9.84332 6.15634 9.62523 5.99553 9.46443C5.83472 9.30362 5.61662 9.21328 5.38921 9.21328C5.16179 9.21328 4.94369 9.30362 4.78288 9.46443C4.62208 9.62523 4.53174 9.84332 4.53174 10.0707Z" fill="#76D3BE"/>
</svg>
