<svg width="22" height="19" viewBox="0 0 22 19" fill="none" xmlns="http://www.w3.org/2000/svg">
<path d="M11 0C4.9346 0 0 3.57894 0 7.97798C0 12.3771 4.9346 15.9562 11 15.9562C11.6842 15.956 12.3675 15.9097 13.0454 15.8174C15.0206 18.1959 17.8978 18.5242 19.331 18.5241C19.5618 18.5241 19.7552 18.5156 19.9013 18.5058C20.0594 18.4953 20.2117 18.4424 20.3422 18.3526C20.4727 18.2628 20.5766 18.1395 20.6429 17.9957C20.7092 17.8518 20.7355 17.6928 20.719 17.5352C20.7025 17.3777 20.6439 17.2275 20.5492 17.1005C20.1765 16.5998 19.0338 14.8623 19.5483 13.0127C21.1312 11.5981 22 9.81777 22 7.97798C22 3.57894 17.0654 0 11 0ZM18.4335 12.039L18.2789 12.1707L18.2141 12.3631C17.5879 14.2217 18.2023 15.961 18.7818 17.0403C17.4389 16.9526 15.3339 16.4883 13.9522 14.5959L13.6857 14.2308L13.2397 14.3049C12.4995 14.4277 11.7504 14.4894 11 14.4895C5.74325 14.4895 1.46667 11.5685 1.46667 7.97798C1.46667 4.38758 5.74325 1.46667 11 1.46667C16.2567 1.46667 20.5333 4.38758 20.5333 7.97798C20.5333 9.4647 19.8073 10.8689 18.4335 12.039Z" fill="#F5BC31"/>
<path d="M15.6558 9.31844C16.3961 9.31844 16.9962 8.71833 16.9962 7.97807C16.9962 7.2378 16.3961 6.6377 15.6558 6.6377C14.9155 6.6377 14.3154 7.2378 14.3154 7.97807C14.3154 8.71833 14.9155 9.31844 15.6558 9.31844Z" fill="#F5BC31"/>
<path d="M11 9.31844C11.7403 9.31844 12.3404 8.71833 12.3404 7.97807C12.3404 7.2378 11.7403 6.6377 11 6.6377C10.2598 6.6377 9.65967 7.2378 9.65967 7.97807C9.65967 8.71833 10.2598 9.31844 11 9.31844Z" fill="#F5BC31"/>
<path d="M7.58288 8.49066C7.86617 7.80674 7.5414 7.02266 6.85748 6.73938C6.17356 6.45609 5.38949 6.78086 5.1062 7.46478C4.82291 8.1487 5.14769 8.93277 5.8316 9.21606C6.51552 9.49935 7.2996 9.17457 7.58288 8.49066Z" fill="#F5BC31"/>
</svg>
