<svg width="19" height="19" viewBox="0 0 19 19" fill="none" xmlns="http://www.w3.org/2000/svg">
<path fill-rule="evenodd" clip-rule="evenodd" d="M13.9333 1.26667H10.1333V0.633333C10.1333 0.283733 9.8496 0 9.5 0C9.1504 0 8.86667 0.283733 8.86667 0.633333V1.26667H5.06667V0.633333C5.06667 0.283733 4.78293 0 4.43333 0C4.08373 0 3.8 0.283733 3.8 0.633333V1.26667H1.58333C1.16343 1.26667 0.760635 1.43323 0.463601 1.73027C0.166568 2.0273 0 2.4301 0 2.85V17.4167C0 17.8366 0.166568 18.2394 0.463601 18.5364C0.760635 18.8334 1.16343 19 1.58333 19C4.66133 19 14.3387 19 17.4167 19C17.8366 19 18.2394 18.8334 18.5364 18.5364C18.8334 18.2394 19 17.8366 19 17.4167V2.85C19 2.4301 18.8334 2.0273 18.5364 1.73027C18.2394 1.43323 17.8366 1.26667 17.4167 1.26667H15.2V0.633333C15.2 0.283733 14.9163 0 14.5667 0C14.2171 0 13.9333 0.283733 13.9333 0.633333V1.26667ZM17.7333 6.33333V17.4167C17.7333 17.5009 17.6998 17.5813 17.6409 17.6409C17.5813 17.6998 17.5009 17.7333 17.4167 17.7333H1.58333C1.4991 17.7333 1.41867 17.6998 1.35914 17.6409C1.30024 17.5813 1.26667 17.5009 1.26667 17.4167V6.33333H17.7333ZM4.43333 13.9333C4.78293 13.9333 5.06667 14.2171 5.06667 14.5667C5.06667 14.9163 4.78293 15.2 4.43333 15.2C4.08373 15.2 3.8 14.9163 3.8 14.5667C3.8 14.2171 4.08373 13.9333 4.43333 13.9333ZM6.96667 13.9333C7.31627 13.9333 7.6 14.2171 7.6 14.5667C7.6 14.9163 7.31627 15.2 6.96667 15.2C6.61707 15.2 6.33333 14.9163 6.33333 14.5667C6.33333 14.2171 6.61707 13.9333 6.96667 13.9333ZM9.5 13.9333C9.8496 13.9333 10.1333 14.2171 10.1333 14.5667C10.1333 14.9163 9.8496 15.2 9.5 15.2C9.1504 15.2 8.86667 14.9163 8.86667 14.5667C8.86667 14.2171 9.1504 13.9333 9.5 13.9333ZM12.0333 13.9333C12.3829 13.9333 12.6667 14.2171 12.6667 14.5667C12.6667 14.9163 12.3829 15.2 12.0333 15.2C11.6837 15.2 11.4 14.9163 11.4 14.5667C11.4 14.2171 11.6837 13.9333 12.0333 13.9333ZM4.43333 11.4C4.78293 11.4 5.06667 11.6837 5.06667 12.0333C5.06667 12.3829 4.78293 12.6667 4.43333 12.6667C4.08373 12.6667 3.8 12.3829 3.8 12.0333C3.8 11.6837 4.08373 11.4 4.43333 11.4ZM6.96667 11.4C7.31627 11.4 7.6 11.6837 7.6 12.0333C7.6 12.3829 7.31627 12.6667 6.96667 12.6667C6.61707 12.6667 6.33333 12.3829 6.33333 12.0333C6.33333 11.6837 6.61707 11.4 6.96667 11.4ZM9.5 11.4C9.8496 11.4 10.1333 11.6837 10.1333 12.0333C10.1333 12.3829 9.8496 12.6667 9.5 12.6667C9.1504 12.6667 8.86667 12.3829 8.86667 12.0333C8.86667 11.6837 9.1504 11.4 9.5 11.4ZM12.0333 11.4C12.3829 11.4 12.6667 11.6837 12.6667 12.0333C12.6667 12.3829 12.3829 12.6667 12.0333 12.6667C11.6837 12.6667 11.4 12.3829 11.4 12.0333C11.4 11.6837 11.6837 11.4 12.0333 11.4ZM14.5667 11.4C14.9163 11.4 15.2 11.6837 15.2 12.0333C15.2 12.3829 14.9163 12.6667 14.5667 12.6667C14.2171 12.6667 13.9333 12.3829 13.9333 12.0333C13.9333 11.6837 14.2171 11.4 14.5667 11.4ZM6.96667 8.86667C7.31627 8.86667 7.6 9.1504 7.6 9.5C7.6 9.8496 7.31627 10.1333 6.96667 10.1333C6.61707 10.1333 6.33333 9.8496 6.33333 9.5C6.33333 9.1504 6.61707 8.86667 6.96667 8.86667ZM9.5 8.86667C9.8496 8.86667 10.1333 9.1504 10.1333 9.5C10.1333 9.8496 9.8496 10.1333 9.5 10.1333C9.1504 10.1333 8.86667 9.8496 8.86667 9.5C8.86667 9.1504 9.1504 8.86667 9.5 8.86667ZM12.0333 8.86667C12.3829 8.86667 12.6667 9.1504 12.6667 9.5C12.6667 9.8496 12.3829 10.1333 12.0333 10.1333C11.6837 10.1333 11.4 9.8496 11.4 9.5C11.4 9.1504 11.6837 8.86667 12.0333 8.86667ZM14.5667 8.86667C14.9163 8.86667 15.2 9.1504 15.2 9.5C15.2 9.8496 14.9163 10.1333 14.5667 10.1333C14.2171 10.1333 13.9333 9.8496 13.9333 9.5C13.9333 9.1504 14.2171 8.86667 14.5667 8.86667ZM15.2 2.53333V3.16667C15.2 3.51627 14.9163 3.8 14.5667 3.8C14.2171 3.8 13.9333 3.51627 13.9333 3.16667V2.53333H10.1333V3.16667C10.1333 3.51627 9.8496 3.8 9.5 3.8C9.1504 3.8 8.86667 3.51627 8.86667 3.16667V2.53333H5.06667V3.16667C5.06667 3.51627 4.78293 3.8 4.43333 3.8C4.08373 3.8 3.8 3.51627 3.8 3.16667V2.53333H1.58333C1.4991 2.53333 1.41867 2.5669 1.35914 2.6258C1.30024 2.68533 1.26667 2.76577 1.26667 2.85V5.06667H17.7333V2.85C17.7333 2.76577 17.6998 2.68533 17.6409 2.6258C17.5813 2.5669 17.5009 2.53333 17.4167 2.53333H15.2Z" fill="#F5BC31"/>
</svg>
