<svg width="30" height="30" viewBox="0 0 30 30" fill="none" xmlns="http://www.w3.org/2000/svg">
<path d="M25.6066 4.39336C22.7735 1.56029 19.0066 0 15 0C10.9934 0 7.22654 1.56029 4.39336 4.39336C1.56029 7.22654 0 10.9934 0 15C0 19.0066 1.56029 22.7735 4.39336 25.6066C7.22654 28.4397 10.9934 30 15 30C17.7429 30 20.4268 29.2525 22.7614 27.8383C23.315 27.5029 23.4919 26.7823 23.1566 26.2288C22.8212 25.6751 22.1006 25.4983 21.5471 25.8336C19.5788 27.026 17.3147 27.6562 15 27.6562C8.02131 27.6562 2.34375 21.9787 2.34375 15C2.34375 8.02131 8.02131 2.34375 15 2.34375C21.9787 2.34375 27.6562 8.02131 27.6562 15C27.6562 17.4954 26.9142 19.9245 25.5102 22.0245C25.1505 22.5625 25.295 23.2903 25.833 23.65C26.3712 24.0098 27.0989 23.8651 27.4586 23.3271C29.1212 20.8403 30 17.9607 30 15C30 10.9934 28.4397 7.22654 25.6066 4.39336Z" fill="#F5BC31"/>
<path d="M13.75 8.87209C12.9246 8.39314 11.9382 8.3915 11.1114 8.86775C10.2815 9.34558 9.78613 10.2036 9.78613 11.1628V18.8365C9.78613 19.7958 10.2815 20.6538 11.1114 21.1316C11.5236 21.369 11.9752 21.4876 12.427 21.4876C12.8815 21.4876 13.3361 21.3674 13.75 21.1272L20.3621 17.2904C21.1872 16.8116 21.6798 15.9553 21.6798 14.9996C21.6798 14.044 21.1872 13.1877 20.3621 12.7089L13.75 8.87209ZM19.1858 15.2631L12.5737 19.1C12.4528 19.1702 12.3478 19.1389 12.2811 19.1006C12.212 19.0608 12.1299 18.9828 12.1299 18.8365V11.1628C12.1299 11.0165 12.212 10.9385 12.2811 10.8987C12.3189 10.8769 12.369 10.8575 12.4273 10.8575C12.4719 10.8575 12.5213 10.8689 12.5737 10.8993L19.1858 14.7362C19.31 14.8082 19.336 14.9192 19.336 14.9996C19.336 15.0801 19.31 15.1911 19.1858 15.2631Z" fill="#F5BC31"/>
</svg>
