<svg width="18" height="18" viewBox="0 0 18 18" fill="none" xmlns="http://www.w3.org/2000/svg">
<path d="M14 8C16.2 8 18 6.2 18 4C18 1.8 16.2 0 14 0C11.8 0 10 1.8 10 4C10 4.46 10.08 4.88 10.22 5.28L6.48 7.22C5.82 6.36 4.78 5.8 3.6 5.8C1.62 5.8 0 7.42 0 9.4C0 11.38 1.62 13 3.6 13C4.64 13 5.58 12.56 6.24 11.86L9.78 14.2C9.66 14.5 9.6 14.84 9.6 15.2C9.6 16.74 10.86 18 12.4 18C13.94 18 15.2 16.74 15.2 15.2C15.2 13.66 13.94 12.4 12.4 12.4C11.64 12.4 10.96 12.7 10.44 13.2L6.9 10.86C7.1 10.42 7.2 9.92 7.2 9.4C7.2 9.02 7.14 8.64 7.02 8.3L10.76 6.36C11.5 7.36 12.68 8 14 8ZM14 1.2C15.54 1.2 16.8 2.46 16.8 4C16.8 5.54 15.54 6.8 14 6.8C12.46 6.8 11.2 5.54 11.2 4C11.2 2.46 12.46 1.2 14 1.2ZM3.6 11.8C2.28 11.8 1.2 10.72 1.2 9.4C1.2 8.08 2.28 7 3.6 7C4.92 7 6 8.08 6 9.4C6 10.72 4.92 11.8 3.6 11.8ZM12.4 13.6C13.28 13.6 14 14.32 14 15.2C14 16.08 13.28 16.8 12.4 16.8C11.52 16.8 10.8 16.08 10.8 15.2C10.8 14.32 11.52 13.6 12.4 13.6Z" fill="#F5BC31"/>
</svg>
