<svg width="16" height="16" viewBox="0 0 16 16" fill="none" xmlns="http://www.w3.org/2000/svg">
<path d="M7.5716 1.68154C7.76593 1.35863 8.23407 1.35863 8.4284 1.68154L10.3156 4.81738C10.525 5.1654 10.8666 5.4136 11.2624 5.50525L14.8279 6.33104C15.195 6.41607 15.3397 6.8613 15.0927 7.14591L12.6935 9.90975C12.4272 10.2165 12.2967 10.6181 12.3318 11.0227L12.6483 14.669C12.6809 15.0444 12.3021 15.3196 11.9551 15.1726L8.58513 13.7449C8.21114 13.5864 7.78887 13.5864 7.41486 13.7449L4.0449 15.1726C3.69788 15.3196 3.31914 15.0444 3.35173 14.669L3.66817 11.0227C3.70329 10.6181 3.5728 10.2165 3.30654 9.90975L0.907346 7.14591C0.660291 6.8613 0.804957 6.41607 1.17211 6.33104L4.73765 5.50525C5.13335 5.4136 5.47498 5.1654 5.68442 4.81738L7.5716 1.68154L7.14319 1.42372L7.5716 1.68154Z" stroke="#F5BC31"/>
</svg>
