<svg width="18" height="16" viewBox="0 0 18 16" fill="none" xmlns="http://www.w3.org/2000/svg">
<path d="M5.10972 3.77651L5.18043 3.84722C5.07833 3.94931 4.93986 4.00667 4.79548 4.00667C4.65109 4.00667 4.51262 3.94931 4.41053 3.84722C4.30843 3.74512 4.25108 3.60665 4.25108 3.46227C4.25108 3.31789 4.30843 3.17942 4.41052 3.07732L5.10972 3.77651ZM5.10972 3.77651L5.18043 3.84722C6.06772 2.95991 7.1982 2.35564 8.42892 2.11082C9.65964 1.866 10.9353 1.99164 12.0946 2.47184C13.2539 2.95203 14.2448 3.76522 14.942 4.80858C15.6391 5.85193 16.0112 7.07858 16.0112 8.33342C16.0112 9.58825 15.6391 10.8149 14.942 11.8583C14.2448 12.9016 13.2539 13.7148 12.0946 14.195C10.9353 14.6752 9.65964 14.8008 8.42892 14.556C7.1982 14.3112 6.06772 13.7069 5.18043 12.8196C5.12987 12.7691 5.06986 12.729 5.00381 12.7016C4.93776 12.6742 4.86697 12.6602 4.79547 12.6602C4.72398 12.6602 4.65319 12.6742 4.58714 12.7016L4.62525 12.7936M5.10972 3.77651L4.62525 12.7936M4.62525 12.7936L4.58714 12.7016C4.52109 12.729 4.46108 12.7691 4.41052 12.8196C4.35997 12.8702 4.31987 12.9302 4.29251 12.9962C4.26515 13.0623 4.25107 13.1331 4.25107 13.2046C4.25107 13.2761 4.26516 13.3469 4.29252 13.4129C4.31988 13.479 4.35998 13.539 4.41053 13.5895C5.10077 14.2798 5.9202 14.8273 6.82205 15.2008C7.72389 15.5744 8.69048 15.7667 9.66663 15.7667C10.6428 15.7667 11.6094 15.5744 12.5112 15.2008C13.413 14.8273 14.2325 14.2798 14.9227 13.5895C15.613 12.8993 16.1605 12.0798 16.534 11.178C16.9076 10.2762 17.0999 9.30957 17.0999 8.33342C17.0999 7.35727 16.9076 6.39068 16.534 5.48884C16.1605 4.587 15.613 3.76756 14.9227 3.07732C14.2325 2.38703 13.4131 1.83946 12.5112 1.46587M4.62525 12.7936L12.5112 1.46587M12.5112 1.46587C11.6094 1.09228 10.6428 0.9 9.66663 0.9M12.5112 1.46587L9.66663 0.9M9.66663 0.9C8.69046 0.9 7.72386 1.09228 6.82201 1.46587M9.66663 0.9L6.82201 1.46587M6.82201 1.46587C5.92017 1.83946 5.10074 2.38703 4.41053 3.07732L6.82201 1.46587Z" fill="white" stroke="white" stroke-width="0.2"/>
<path d="M9.12241 3.47081V3.47082L9.35264 8.64794L9.28192 8.71865L9.28193 8.71866L11.7134 11.1501C11.8155 11.2522 11.9539 11.3096 12.0983 11.3096C12.2427 11.3096 12.3812 11.2522 12.4833 11.1501C12.5854 11.048 12.6427 10.9095 12.6427 10.7652C12.6427 10.6208 12.5854 10.4823 12.4833 10.3802L10.2113 8.10827V3.47082V3.47081C10.2113 3.32642 10.1539 3.18794 10.0518 3.08584C9.94974 2.98374 9.81126 2.92637 9.66687 2.92637H9.66686C9.52246 2.92637 9.38399 2.98374 9.28188 3.08584C9.17978 3.18794 9.12242 3.32642 9.12241 3.47081Z" fill="white" stroke="white" stroke-width="0.2"/>
<path d="M6.87784 8.33312C6.87784 8.18872 6.82048 8.05024 6.71837 7.94814C6.61627 7.84603 6.47779 7.78867 6.33339 7.78867H1.44445C1.30005 7.78867 1.16157 7.84603 1.05947 7.94814C0.957362 8.05024 0.9 8.18872 0.9 8.33312C0.9 8.47752 0.957362 8.616 1.05947 8.7181C1.16157 8.82021 1.30005 8.87757 1.44445 8.87757H6.33339C6.47779 8.87757 6.61627 8.82021 6.71837 8.7181C6.82048 8.616 6.87784 8.47752 6.87784 8.33312Z" fill="white" stroke="white" stroke-width="0.2"/>
<path d="M3.22228 6.21155H6.33343C6.47782 6.21155 6.61631 6.15419 6.71841 6.05209C6.82051 5.94998 6.87787 5.8115 6.87787 5.66711C6.87787 5.52271 6.82051 5.38423 6.71841 5.28212C6.61631 5.18002 6.47782 5.12266 6.33343 5.12266H3.22228C3.07788 5.12266 2.9394 5.18002 2.8373 5.28212C2.73519 5.38423 2.67783 5.52271 2.67783 5.66711C2.67783 5.8115 2.73519 5.94998 2.8373 6.05209C2.9394 6.15419 3.07788 6.21155 3.22228 6.21155Z" fill="white" stroke="white" stroke-width="0.2"/>
<path d="M6.87787 11.0001C6.87787 10.8557 6.82051 10.7172 6.71841 10.6151C6.61631 10.513 6.47782 10.4557 6.33343 10.4557H3.22228C3.07788 10.4557 2.9394 10.513 2.8373 10.6151C2.73519 10.7172 2.67783 10.8557 2.67783 11.0001C2.67783 11.1445 2.73519 11.283 2.8373 11.3851C2.9394 11.4872 3.07788 11.5446 3.22228 11.5446H6.33343C6.47782 11.5446 6.61631 11.4872 6.71841 11.3851C6.82051 11.283 6.87787 11.1445 6.87787 11.0001Z" fill="white" stroke="white" stroke-width="0.2"/>
</svg>
