<svg width="27" height="33" viewBox="0 0 27 33" fill="none" xmlns="http://www.w3.org/2000/svg">
<path d="M13.4512 29.5972C6.97243 29.5972 0 28.2046 0 25.1476V24.7897L2.55385 22.4033V13.5706C2.55385 6.75847 7.0813 1.81445 13.3193 1.81445C19.558 1.81445 24.085 6.75847 24.085 13.5706V22.3787L26.9031 24.7651V25.1476C26.9031 28.2046 19.9307 29.5972 13.4512 29.5972ZM1.7449 25.416C2.40491 26.4083 6.48404 27.9483 13.4516 27.9483C20.3718 27.9483 24.4419 26.4295 25.145 25.4361L22.4377 23.1438V13.5706C22.4377 7.71371 18.6024 3.46296 13.3196 3.46296C8.03692 3.46296 4.20274 7.71371 4.20274 13.5706V23.1192L1.7449 25.416Z" fill="#76D3BE"/>
<path d="M16.5537 30.3555C16.5537 31.7243 15.1059 32.8356 13.3191 32.8356C11.533 32.8356 10.0859 31.7246 10.0859 30.3555H16.5537Z" fill="#76D3BE"/>
<path d="M13.3194 32.9996C11.4456 32.9996 9.92188 31.813 9.92188 30.355V30.1895H16.7185V30.355C16.7185 31.813 15.194 32.9996 13.3194 32.9996ZM10.2583 30.5195C10.3706 31.7193 11.7008 32.67 13.3194 32.67C14.9385 32.67 16.2691 31.7189 16.3813 30.5195H10.2583Z" fill="#76D3BE"/>
<path d="M14.6252 2.63853V1.33325C14.6252 0.687987 14.0404 0.164062 13.3192 0.164062C12.5987 0.164062 12.0146 0.687987 12.0146 1.33325V2.63853" fill="#76D3BE"/>
<path d="M14.7898 2.63928H14.4598V1.334C14.4598 0.780217 13.9487 0.330005 13.3189 0.330005C12.6914 0.330005 12.1796 0.780217 12.1796 1.334V2.63928H11.8496V1.334C11.8496 0.598771 12.5089 0 13.3189 0C14.1302 0 14.7898 0.598771 14.7898 1.334V2.63928Z" fill="#76D3BE"/>
</svg>
