<svg width="42" height="39" viewBox="0 0 42 39" fill="none" xmlns="http://www.w3.org/2000/svg">
<path d="M15.5885 2.30962C13.342 3.24025 11.3007 4.60429 9.58138 6.32384C9.35332 6.5519 9.2252 6.86121 9.2252 7.18373C9.2252 7.50625 9.35332 7.81556 9.58138 8.04362C9.80944 8.27167 10.1187 8.39979 10.4413 8.39979C10.7638 8.39979 11.0731 8.27167 11.3012 8.04362L11.2304 7.97291L11.3012 8.04362C13.5506 5.79409 16.4166 4.26214 19.5368 3.64147C22.6569 3.02081 25.891 3.33932 28.8302 4.55672C31.7693 5.77413 34.2814 7.83574 36.0488 10.4809C37.8162 13.126 38.7596 16.2358 38.7596 19.4171C38.7596 22.5984 37.8162 25.7082 36.0488 28.3533C34.2814 30.9984 31.7693 33.0601 28.8302 34.2775C25.891 35.4949 22.6569 35.8134 19.5368 35.1927C16.4166 34.572 13.5506 33.0401 11.3012 30.7906L11.2304 30.8613L11.3012 30.7906C11.1882 30.6776 11.0542 30.5881 10.9066 30.527C10.7591 30.4658 10.601 30.4344 10.4413 30.4344C10.2816 30.4344 10.1234 30.4658 9.97589 30.527C9.82835 30.5881 9.69429 30.6777 9.58137 30.7906C9.46845 30.9035 9.37887 31.0376 9.31776 31.1851C9.25665 31.3326 9.22519 31.4908 9.2252 31.6505C9.2252 31.8102 9.25665 31.9683 9.31777 32.1158C9.37888 32.2634 9.46846 32.3974 9.58138 32.5104C11.3008 34.2298 13.3421 35.5937 15.5886 36.5243C17.8352 37.4548 20.243 37.9338 22.6746 37.9338C25.1063 37.9338 27.5141 37.4548 29.7607 36.5243C32.0072 35.5937 34.0485 34.2298 35.7679 32.5104C37.4873 30.7909 38.8512 28.7497 39.7818 26.5031C40.7123 24.2566 41.1913 21.8487 41.1913 19.4171C41.1913 16.9855 40.7123 14.5776 39.7818 12.3311C38.8512 10.0845 37.4873 8.04327 35.7679 6.32384C34.0485 4.60429 32.0073 3.24025 29.7607 2.30962C27.5142 1.37899 25.1063 0.9 22.6746 0.9C20.243 0.9 17.8351 1.37899 15.5885 2.30962Z" fill="#76D3BE" stroke="#76D3BE" stroke-width="0.2"/>
<path d="M21.4586 7.20505V7.20505V19.4177V19.4177C21.4587 19.7402 21.5868 20.0495 21.8149 20.2776C21.8149 20.2776 21.8149 20.2776 21.8149 20.2776L27.9212 26.3839C28.1493 26.6119 28.4586 26.7401 28.7811 26.7401C29.1037 26.7401 29.413 26.6119 29.641 26.3839C29.8691 26.1558 29.9972 25.8465 29.9972 25.524C29.9972 25.2015 29.8691 24.8922 29.641 24.6641L23.891 18.9141V7.20505V7.20505C23.8909 6.8825 23.7628 6.57317 23.5347 6.3451C23.3067 6.11702 22.9973 5.98888 22.6748 5.98887H22.6748C22.3522 5.98888 22.0429 6.11702 21.8148 6.3451C21.5867 6.57317 21.4586 6.8825 21.4586 7.20505Z" fill="#76D3BE" stroke="#76D3BE" stroke-width="0.2"/>
<path d="M15.5196 19.4179C15.5196 19.0954 15.3915 18.786 15.1634 18.558C14.9353 18.3299 14.626 18.2018 14.3034 18.2018H2.02537C1.70281 18.2018 1.39347 18.3299 1.16539 18.558C0.937313 18.786 0.80918 19.0954 0.80918 19.4179C0.80918 19.7405 0.937313 20.0498 1.16539 20.2779C1.39347 20.506 1.70281 20.6341 2.02537 20.6341H14.3034C14.626 20.6341 14.9353 20.506 15.1634 20.2779C15.3915 20.0498 15.5196 19.7405 15.5196 19.4179Z" fill="#76D3BE" stroke="#76D3BE" stroke-width="0.2"/>
<path d="M6.48972 13.9369H14.303C14.6256 13.9369 14.9349 13.8087 15.163 13.5807C15.3911 13.3526 15.5192 13.0432 15.5192 12.7207C15.5192 12.3981 15.3911 12.0888 15.163 11.8607C14.9349 11.6326 14.6256 11.5045 14.303 11.5045H6.48972C6.16717 11.5045 5.85783 11.6326 5.62975 11.8607C5.40167 12.0888 5.27354 12.3981 5.27354 12.7207C5.27354 13.0432 5.40167 13.3526 5.62975 13.5807C5.85783 13.8087 6.16717 13.9369 6.48972 13.9369Z" fill="#76D3BE" stroke="#76D3BE" stroke-width="0.2"/>
<path d="M15.5192 26.1133C15.5192 25.7907 15.3911 25.4814 15.163 25.2533C14.9349 25.0252 14.6256 24.8971 14.303 24.8971H6.48972C6.16717 24.8971 5.85783 25.0252 5.62975 25.2533C5.40167 25.4814 5.27354 25.7907 5.27354 26.1133C5.27354 26.4358 5.40167 26.7452 5.62975 26.9732C5.85783 27.2013 6.16717 27.3294 6.48972 27.3294H14.303C14.6256 27.3294 14.9349 27.2013 15.163 26.9732C15.3911 26.7452 15.5192 26.4358 15.5192 26.1133Z" fill="#76D3BE" stroke="#76D3BE" stroke-width="0.2"/>
</svg>
