<svg width="36" height="23" viewBox="0 0 36 23" fill="none" xmlns="http://www.w3.org/2000/svg">
<path d="M0.292893 21.2929C-0.0976311 21.6834 -0.0976311 22.3166 0.292893 22.7071C0.683417 23.0976 1.31658 23.0976 1.70711 22.7071L0.292893 21.2929ZM15.5 7.5L16.2071 6.79289L15.5 6.08579L14.7929 6.79289L15.5 7.5ZM22 14L21.2929 14.7071L22 15.4142L22.7071 14.7071L22 14ZM36 1C36 0.447715 35.5523 0 35 0H26C25.4477 0 25 0.447715 25 1C25 1.55228 25.4477 2 26 2H34V10C34 10.5523 34.4477 11 35 11C35.5523 11 36 10.5523 36 10V1ZM1.70711 22.7071L16.2071 8.20711L14.7929 6.79289L0.292893 21.2929L1.70711 22.7071ZM14.7929 8.20711L21.2929 14.7071L22.7071 13.2929L16.2071 6.79289L14.7929 8.20711ZM22.7071 14.7071L35.7071 1.70711L34.2929 0.292893L21.2929 13.2929L22.7071 14.7071Z" fill="#76D3BE"/>
</svg>
