<svg width="39" height="49" viewBox="0 0 39 49" fill="none" xmlns="http://www.w3.org/2000/svg">
<path d="M38.0927 45.0474L37.5035 43.8471C37.307 43.4471 37.2058 43.007 37.2076 42.5613C37.2352 38.353 36.7661 24.0591 29.5675 16.8127L38.0927 45.0474ZM38.0927 45.0474C38.2696 45.4045 38.3521 45.801 38.3322 46.1991C38.3123 46.5972 38.1908 46.9835 37.9791 47.3212L38.0927 45.0474ZM36.0355 47.0322H36.0348H2.30026H2.29957C2.1427 47.0318 1.98858 46.9911 1.85204 46.9138C1.71639 46.8371 1.60265 46.7269 1.52162 46.5938C1.4339 46.4542 1.38352 46.2943 1.37538 46.1296C1.36721 45.9643 1.40181 45.7998 1.47583 45.6518C1.47605 45.6514 1.47626 45.6509 1.47648 45.6505L2.06524 44.4524L36.0355 47.0322ZM36.0355 47.0322C36.1923 47.0318 36.3465 46.9911 36.483 46.9138L36.3388 46.6588M36.0355 47.0322L36.3388 46.6588M36.3388 46.6588L36.483 46.9138C36.6188 46.837 36.7326 46.7268 36.8136 46.5936M36.3388 46.6588L36.8136 46.5936M36.8136 46.5936C36.9012 46.4541 36.9515 46.2943 36.9597 46.1298C36.9678 45.9646 36.9333 45.8001 36.8593 45.6522C36.859 45.6517 36.8588 45.6513 36.8586 45.6509L36.2703 44.4527L36.8136 46.5936ZM2.50129 42.5518C2.49178 41.1021 2.55128 36.6819 3.48258 31.746C4.41196 26.8203 6.21914 21.327 9.74234 17.7806C12.2705 15.2356 15.4478 13.9457 19.1675 13.9457C22.8872 13.9457 26.0646 15.2356 28.5927 17.7807C32.116 21.327 33.9232 26.8203 34.8527 31.746C35.7839 36.6817 35.8435 41.1018 35.8339 42.5518M2.50129 42.5518L35.8339 42.5523C35.8339 42.5521 35.8339 42.552 35.8339 42.5518M2.50129 42.5518C2.50419 43.2103 2.35502 43.8606 2.06541 44.452L2.50129 42.5518ZM35.8339 42.5518C35.8309 43.2105 35.9802 43.861 36.2702 44.4525L35.8339 42.5518ZM37.8297 45.1765L37.8301 45.1774C37.9849 45.4897 38.057 45.8364 38.0396 46.1845C38.0222 46.5326 37.9159 46.8704 37.7309 47.1656L37.7296 47.1677C37.5516 47.457 37.3023 47.6958 37.0057 47.8614C36.7091 48.0269 36.3749 48.1136 36.0352 48.1133H36.0349H2.30026H2.29992C1.96022 48.1136 1.62608 48.0269 1.32943 47.8614C1.03278 47.6959 0.783525 47.4571 0.605476 47.1678L0.604217 47.1658C0.419156 46.8705 0.312869 46.5326 0.295502 46.1846C0.278136 45.8365 0.35027 45.4898 0.505019 45.1775L0.505493 45.1766L1.09507 43.9759L1.09513 43.9758C1.31124 43.5351 1.4226 43.0505 1.42051 42.5597L1.4205 42.559C1.40672 40.4655 1.51685 35.8621 2.52499 30.8842C3.53467 25.8986 5.4366 20.5814 8.97529 17.0192L8.97667 17.0178C10.2709 15.6973 11.8166 14.6495 13.5225 13.9365L13.9708 13.7491L13.5959 13.4401C13.2452 13.1511 12.9923 12.7607 12.8719 12.3225C12.7514 11.8843 12.7692 11.4196 12.9229 10.9919C13.0765 10.5642 13.3585 10.1944 13.7303 9.93301C14.1021 9.67165 14.5455 9.53148 15 9.53168H15.0001H15.2862H16.0497L15.4822 9.02094C14.0902 7.76824 12.793 5.49325 12.793 1.3218C12.793 0.79182 12.9665 0.5121 13.2339 0.375211C13.4553 0.262529 13.6668 0.273056 13.9039 0.365725C14.1561 0.464287 14.4098 0.644987 14.6972 0.85236L14.7023 0.856051C14.9057 1.00295 15.1608 1.18713 15.4173 1.33428C15.6655 1.47669 15.965 1.61477 16.2476 1.61477C16.5267 1.61477 16.7402 1.58093 16.9342 1.51488C17.1187 1.45204 17.2746 1.36307 17.4295 1.27469L17.4393 1.26908L17.4394 1.26899L17.4425 1.26725C17.8374 1.04225 18.2953 0.781363 19.1673 0.781363C20.0392 0.781363 20.4971 1.04225 20.892 1.26725L20.8951 1.26901L20.8952 1.26908L20.9055 1.27492C21.0602 1.36321 21.216 1.45209 21.4003 1.51487C21.5943 1.58093 21.8077 1.61477 22.0869 1.61477C22.3695 1.61477 22.669 1.4767 22.9173 1.33428C23.174 1.18704 23.4292 1.00273 23.6326 0.855781L23.6374 0.852325C23.6374 0.852314 23.6374 0.852305 23.6374 0.852294C23.925 0.644686 24.1787 0.463788 24.4309 0.365167C24.6679 0.272439 24.8793 0.262046 25.1005 0.375136C25.3678 0.511996 25.5414 0.791734 25.5414 1.3218C25.5414 5.49324 24.2441 7.76824 22.8522 9.02094L22.2847 9.53168H23.0482H23.3344H23.3345C23.7889 9.5315 24.2324 9.67168 24.6041 9.93305C24.9759 10.1944 25.2579 10.5642 25.4115 10.9919C25.5652 11.4196 25.583 11.8843 25.4625 12.3226C25.3421 12.7608 25.0892 13.1511 24.7385 13.4401L24.3636 13.7492L24.8119 13.9365C26.518 14.6495 28.0639 15.6973 29.3582 17.0178L29.3596 17.0192C32.8986 20.5817 34.8006 25.8989 35.8102 30.8844C36.8184 35.8624 36.9284 40.4658 36.9147 42.5594V42.5601C36.9126 43.051 37.0241 43.5356 37.2405 43.9763L37.8297 45.1765ZM14.3553 1.93575L13.8659 1.59463L13.8951 2.19046C14.0667 5.68467 15.2742 7.53606 16.5245 8.50682C17.7635 9.46885 18.996 9.52783 19.1607 9.53142L19.1607 9.53169L19.1734 9.53142C19.3384 9.52784 20.571 9.46897 21.8101 8.50697C23.0605 7.53625 24.268 5.68484 24.4395 2.19046L24.4687 1.59464L23.9794 1.93575C23.4221 2.32413 22.781 2.69535 22.0867 2.69535C21.215 2.69535 20.7571 2.43422 20.3625 2.20919L20.3598 2.20769L20.3597 2.2076L20.3482 2.20107C20.1938 2.1131 20.0382 2.0245 19.8543 1.96187C19.6603 1.8958 19.4467 1.86195 19.1673 1.86195C18.8878 1.86195 18.6742 1.8958 18.4802 1.96187C18.2963 2.02451 18.1407 2.11314 17.9863 2.20113L17.9749 2.20762L17.9747 2.20773L17.9725 2.20901C17.5781 2.43403 17.1202 2.69535 16.2479 2.69535C15.5536 2.69535 14.9125 2.32413 14.3553 1.93575ZM23.3375 10.6123V10.6123H23.3344H15.0023C14.8539 10.6109 14.7067 10.6389 14.5692 10.6945C14.4312 10.7504 14.3056 10.8331 14.1997 10.9379C14.0938 11.0426 14.0098 11.1673 13.9524 11.3048C13.8951 11.4422 13.8656 11.5897 13.8656 11.7386C13.8656 11.8875 13.8951 12.035 13.9524 12.1724C14.0098 12.3098 14.0938 12.4345 14.1997 12.5393C14.3056 12.644 14.4312 12.7267 14.5692 12.7826C14.7067 12.8383 14.8539 12.8663 15.0023 12.8649L23.3344 12.8649L23.3375 12.8649C23.6341 12.8617 23.9175 12.7417 24.1262 12.5308C24.3348 12.3199 24.4519 12.0352 24.4519 11.7386C24.4519 11.4419 24.3348 11.1573 24.1262 10.9464C23.9175 10.7355 23.6341 10.6154 23.3375 10.6123Z" fill="#76D3BE" stroke="#76D3BE" stroke-width="0.585938"/>
<path d="M29.794 25.8047L29.794 25.8047L29.7922 25.8009C28.4177 22.8244 26.6604 20.5134 24.561 18.9487C24.448 18.8626 24.3735 18.7354 24.3535 18.5947C24.3335 18.4537 24.37 18.3104 24.4551 18.1961C24.5402 18.0819 24.667 18.0058 24.8079 17.9846C24.9484 17.9634 25.0915 17.9984 25.2064 18.0819C27.4362 19.7432 29.312 22.1827 30.773 25.3478L30.7729 25.3479L30.7748 25.3517C30.8057 25.4163 30.8235 25.4863 30.8272 25.5578L31.1198 25.543L30.8272 25.5578C30.8308 25.6293 30.8202 25.7009 30.7959 25.7682C30.7717 25.8356 30.7343 25.8975 30.6859 25.9502C30.6375 26.003 30.5791 26.0457 30.5141 26.0757C30.4491 26.1057 30.3788 26.1225 30.3073 26.1251C30.2357 26.1277 30.1644 26.1161 30.0974 26.0909C30.0303 26.0657 29.969 26.0274 29.9169 25.9783C29.8648 25.9291 29.823 25.8701 29.794 25.8047Z" fill="#76D3BE" stroke="#76D3BE" stroke-width="0.585938"/>
<path d="M20.2512 25.3134C20.7585 25.4618 21.1682 25.7106 21.4804 26.0597C21.8506 26.4737 22.0942 27.069 22.2112 27.8456L20.2512 25.3134ZM20.2512 25.3134V25.241H19.9583L19.8996 25.5281C19.9193 25.5321 19.9388 25.5363 19.9583 25.5406V30.9449C20.9545 31.194 21.614 31.3882 21.9367 31.5273L20.2512 25.3134ZM21.8207 31.7964L21.8207 31.7964L21.8236 31.7976C22.3479 32.0169 22.827 32.3314 23.2367 32.7252C23.5985 33.0898 23.8802 33.5259 24.0638 34.0057L24.0638 34.0059C24.263 34.5257 24.3627 35.0784 24.3578 35.635H24.3578V35.6376C24.3577 36.9394 23.9461 38.0079 23.1307 38.8645C22.3162 39.7202 21.2616 40.1837 19.9443 40.2464L19.6653 40.2597V40.5391V42.2468H19.0866V40.5616V40.3032L18.8303 40.2709C17.8616 40.1489 17.094 39.934 16.5157 39.6363C15.952 39.3458 15.4533 38.8713 15.0243 38.1955C14.6419 37.5929 14.3996 36.8596 14.3065 35.9868L15.7382 35.7179C15.9012 36.6552 16.1688 37.391 16.5623 37.8953L16.5636 37.8969C17.1616 38.6521 17.8962 39.0924 18.763 39.1824L19.0862 39.2159V38.891V32.5937V32.3542L18.8515 32.3066C18.0053 32.1349 17.1926 31.8269 16.4451 31.3946L16.4452 31.3946L16.4392 31.3913C15.8733 31.0812 15.4085 30.6148 15.1005 30.0478C14.7764 29.4398 14.6126 28.7592 14.6244 28.0704L14.6244 28.0704L14.6244 28.0653C14.6243 26.7373 15.0904 25.6806 16.019 24.8679L16.0195 24.8675C16.6228 24.337 17.5439 23.9905 18.8226 23.8619L19.0862 23.8354V23.5704V22.918H19.6652V23.5704V23.8367L19.9303 23.8621C21.0401 23.9682 21.8904 24.2904 22.5066 24.8062L22.5074 24.8069C23.2429 25.4181 23.7157 26.2403 23.9179 27.2924L22.4503 27.5133C22.3135 26.8346 22.0686 26.2779 21.6988 25.8644C21.2792 25.3952 20.7114 25.096 20.0169 24.954L19.6653 24.8821V25.241V30.9449V31.1736L19.8872 31.2291C20.8869 31.4791 21.5233 31.6681 21.8207 31.7964ZM18.7089 30.9722L19.0862 31.0857V30.6917V25.219V24.8779L18.749 24.9294C17.9247 25.0553 17.2525 25.3898 16.7563 25.9464C16.2696 26.485 16.0052 27.188 16.0165 27.9138C16.0166 28.6451 16.2231 29.2775 16.6502 29.7912C17.0805 30.3087 17.7828 30.6936 18.7089 30.9722ZM19.9896 39.1819C20.5673 39.1197 21.113 38.9033 21.572 38.561V38.6678L22.0851 38.0838C22.6391 37.4532 22.9107 36.6751 22.9107 35.7694V35.7694C22.9107 35.0028 22.7204 34.3544 22.3118 33.8533C21.9 33.3483 21.1209 32.9371 20.0486 32.5895L19.6653 32.4652V32.8682V38.8906V39.2168L19.9896 39.1819Z" fill="#76D3BE" stroke="#76D3BE" stroke-width="0.585938"/>
</svg>
