<svg width="48" height="48" viewBox="0 0 48 48" fill="none" xmlns="http://www.w3.org/2000/svg">
<path d="M47.0944 23.0944H41.6374C41.1796 14.0756 33.9245 6.82041 24.9056 6.36262V0.905625C24.9056 0.665438 24.8102 0.435089 24.6404 0.265251C24.4705 0.0954138 24.2402 0 24 0C23.7598 0 23.5295 0.0954138 23.3596 0.265251C23.1898 0.435089 23.0944 0.665438 23.0944 0.905625V6.36262C14.0756 6.82041 6.82041 14.0755 6.36262 23.0944H0.905625C0.665438 23.0944 0.435089 23.1898 0.265251 23.3596C0.0954138 23.5295 0 23.7598 0 24C0 24.2402 0.0954138 24.4705 0.265251 24.6404C0.435089 24.8102 0.665438 24.9056 0.905625 24.9056H6.36262C6.82041 33.9244 14.0755 41.1796 23.0944 41.6374V47.0944C23.0944 47.3346 23.1898 47.5649 23.3596 47.7347C23.5295 47.9046 23.7598 48 24 48C24.2402 48 24.4705 47.9046 24.6404 47.7347C24.8102 47.5649 24.9056 47.3346 24.9056 47.0944V41.6374C33.9244 41.1796 41.1796 33.9245 41.6374 24.9056H47.0944C47.3346 24.9056 47.5649 24.8102 47.7347 24.6404C47.9046 24.4705 48 24.2402 48 24C48 23.7598 47.9046 23.5295 47.7347 23.3596C47.5649 23.1898 47.3346 23.0944 47.0944 23.0944ZM39.8214 23.0944H34.8273C34.6099 20.5358 33.4948 18.1366 31.6791 16.3209C29.8634 14.5052 27.4642 13.3901 24.9056 13.1727V8.17856C32.925 8.63278 39.3672 15.075 39.8214 23.0944ZM28.9811 24.9056H33.0107C32.7989 26.983 31.877 28.9238 30.4004 30.4004C28.9238 31.877 26.983 32.7989 24.9056 33.0107V28.9811C24.9056 28.7409 24.8102 28.5106 24.6404 28.3408C24.4705 28.1709 24.2402 28.0755 24 28.0755C23.7598 28.0755 23.5295 28.1709 23.3596 28.3408C23.1898 28.5106 23.0944 28.7409 23.0944 28.9811V33.0107C21.017 32.7989 19.0762 31.877 17.5996 30.4004C16.123 28.9238 15.2011 26.983 14.9893 24.9056H19.0189C19.2591 24.9056 19.4894 24.8102 19.6592 24.6404C19.8291 24.4705 19.9245 24.2402 19.9245 24C19.9245 23.7598 19.8291 23.5295 19.6592 23.3596C19.4894 23.1898 19.2591 23.0944 19.0189 23.0944H14.9893C15.2011 21.017 16.123 19.0762 17.5996 17.5996C19.0762 16.123 21.017 15.2011 23.0944 14.9893V19.0189C23.0944 19.2591 23.1898 19.4894 23.3596 19.6592C23.5295 19.8291 23.7598 19.9245 24 19.9245C24.2402 19.9245 24.4705 19.8291 24.6404 19.6592C24.8102 19.4894 24.9056 19.2591 24.9056 19.0189V14.9893C26.983 15.2011 28.9238 16.123 30.4004 17.5996C31.877 19.0762 32.7989 21.017 33.0107 23.0944H28.9811C28.7409 23.0944 28.5106 23.1898 28.3408 23.3596C28.1709 23.5295 28.0755 23.7598 28.0755 24C28.0755 24.2402 28.1709 24.4705 28.3408 24.6404C28.5106 24.8102 28.7409 24.9056 28.9811 24.9056ZM23.0944 8.17856V13.1727C20.5358 13.3901 18.1366 14.5052 16.3209 16.3209C14.5052 18.1366 13.3901 20.5358 13.1727 23.0944H8.17856C8.63278 15.075 15.075 8.63278 23.0944 8.17856ZM8.17856 24.9056H13.1727C13.3901 27.4642 14.5052 29.8634 16.3209 31.6791C18.1366 33.4948 20.5358 34.6099 23.0944 34.8273V39.8214C15.075 39.3672 8.63278 32.925 8.17856 24.9056ZM24.9056 39.8213V34.8273C27.4642 34.6099 29.8634 33.4948 31.6791 31.6791C33.4948 29.8634 34.6099 27.4642 34.8273 24.9056H39.8214C39.3672 32.925 32.925 39.367 24.9056 39.8213Z" fill="#76D3BE"/>
</svg>
