<svg width="38" height="31" viewBox="0 0 38 31" fill="none" xmlns="http://www.w3.org/2000/svg">
<path d="M28.7604 11.3557H28.6011V3.65743C28.6011 1.28432 23.8383 0 19.3615 0C14.8847 0 10.1219 1.28432 10.1219 3.65743V10.8918C9.84957 10.8688 9.57726 10.8573 9.30494 10.8573C7.65817 10.8566 6.04073 11.2663 4.61792 12.0445C3.19511 12.8227 2.01795 13.9416 1.20675 15.2866C0.395542 16.6317 -0.0206223 18.1548 0.000786188 19.7003C0.0221946 21.2458 0.480408 22.7582 1.3286 24.0831C2.17679 25.4079 3.38454 26.4976 4.82842 27.2408C6.27231 27.9841 7.90055 28.3542 9.54675 28.3133C11.1929 28.2724 12.7981 27.8221 14.1981 27.0083C15.5981 26.1945 16.7428 25.0464 17.5152 23.6813C18.1238 23.7311 18.7406 23.7541 19.3533 23.7541H19.5126V27.3426C19.5126 29.7157 24.2754 31 28.7522 31C33.2291 31 38 29.7003 38 27.3272V23.2212V15.0093C38 12.6362 33.2413 11.3557 28.7604 11.3557ZM19.3656 1.15014C24.3285 1.15014 27.3798 2.61081 27.3798 3.65743C27.3798 4.15582 26.6976 4.72323 25.5498 5.19095C23.9935 5.81585 21.7388 6.1724 19.3656 6.1724C16.9924 6.1724 14.7376 5.81585 13.1813 5.19095C12.0335 4.73473 11.3514 4.16733 11.3514 3.65743C11.3473 2.61081 14.3945 1.15014 19.3615 1.15014H19.3656ZM11.3473 5.54366C11.7675 5.82167 12.2196 6.05444 12.6952 6.23757C14.4231 6.93149 16.78 7.31103 19.3615 7.31103C21.943 7.31103 24.2999 6.92765 26.0277 6.23757C26.5029 6.05361 26.955 5.82089 27.3757 5.54366V7.76342C27.3757 8.81004 24.3244 10.2669 19.3615 10.2669C14.3986 10.2669 11.3473 8.81004 11.3473 7.76342V5.54366ZM9.30494 27.1509C7.70742 27.1524 6.14531 26.7092 4.81623 25.8772C3.48716 25.0453 2.45083 23.8621 1.83837 22.4773C1.2259 21.0925 1.06481 19.5683 1.37548 18.0975C1.68615 16.6268 2.45462 15.2755 3.58367 14.2148C4.71272 13.154 6.15161 12.4314 7.71832 12.1383C9.28503 11.8452 10.9092 11.9949 12.3852 12.5683C13.8613 13.1417 15.123 14.1132 16.0107 15.3598C16.8984 16.6064 17.3722 18.0721 17.3722 19.5715C17.3701 21.5784 16.5208 23.5027 15.0104 24.9233C13.4999 26.3438 11.4514 27.1448 9.31311 27.1509H9.30494ZM19.5167 22.5848H19.3574C18.904 22.5848 18.471 22.5848 18.0544 22.5465C18.412 21.6077 18.5958 20.6183 18.5976 19.6213H19.3451H19.5045L19.5167 22.5848ZM19.5167 18.4789H19.3574C19.0756 18.4789 18.8019 18.4789 18.5405 18.4789C18.4002 17.4253 18.054 16.405 17.5193 15.4693H17.8052L18.23 15.4923C18.3158 15.4923 18.4057 15.4923 18.4955 15.4923C18.7815 15.4923 19.0715 15.5115 19.3615 15.5115H19.5208L19.5167 18.4789ZM19.6392 14.369H19.3574C18.4519 14.3699 17.5474 14.3161 16.6492 14.208C15.3244 12.6067 13.4469 11.4884 11.3391 11.0451V9.65348C11.5228 9.77602 11.7137 9.88866 11.911 9.99085L11.9968 10.033C12.0703 10.0714 12.1438 10.1097 12.2214 10.1442L12.3644 10.2094L12.5359 10.2822L12.6871 10.3474L12.7484 10.3704L13.1568 10.5199C14.6493 11.0052 16.2074 11.2905 17.7848 11.3672L18.2137 11.3902H18.4792C18.7651 11.3902 19.0551 11.3902 19.3451 11.3902C19.6352 11.3902 19.9252 11.3902 20.2111 11.3902H20.4766L20.8851 11.3672C22.4728 11.2898 24.0408 11.0007 25.5416 10.5084L25.9787 10.3512H26.0236L26.1666 10.2899L26.3504 10.2094L26.4852 10.148L26.714 10.0369L26.7997 9.99468C26.997 9.89249 27.1879 9.77985 27.3716 9.65731V11.3978C23.773 11.6049 20.3255 12.6285 19.6433 14.369H19.6392ZM36.7746 27.3272C36.7746 28.3739 33.7274 29.8345 28.7604 29.8345C23.7934 29.8345 20.7462 28.3739 20.7462 27.3272V25.1075C21.1667 25.3861 21.6188 25.6201 22.0942 25.8052C23.822 26.4953 26.1789 26.8748 28.7604 26.8748C31.3419 26.8748 33.7111 26.4953 35.4266 25.8052C35.9025 25.6209 36.3546 25.3869 36.7746 25.1075V27.3272ZM36.7746 23.2212C36.7746 23.2212 36.7746 23.2212 36.7746 23.2519C36.7707 23.3076 36.7612 23.3628 36.746 23.4168L36.7052 23.5011C36.688 23.5409 36.6675 23.5794 36.6439 23.6161C36.6439 23.6506 36.5949 23.6813 36.5704 23.7158C36.5458 23.7503 36.5173 23.7848 36.4846 23.8193C36.4519 23.8538 36.4111 23.8883 36.3702 23.9267L36.264 24.0225L36.1129 24.1337L35.9862 24.2219L35.7983 24.3369L35.6513 24.4174L35.4266 24.5362L35.2755 24.6052L34.9896 24.7279L34.8956 24.7663C34.7282 24.8314 34.5525 24.8928 34.3687 24.9541L34.3033 24.9771C32.5115 25.5044 30.6422 25.7632 28.7645 25.7439C26.8867 25.7629 25.0175 25.5041 23.2256 24.9771L23.1562 24.9541C22.9765 24.8928 22.8049 24.8314 22.6374 24.7663L22.5353 24.7279L22.2739 24.6052C22.2208 24.5822 22.1677 24.5592 22.1187 24.5324L21.8654 24.4212L21.7143 24.333C21.6509 24.2991 21.5896 24.262 21.5305 24.2219L21.3998 24.1299C21.3467 24.0954 21.2976 24.057 21.2527 24.0225C21.214 23.9912 21.1772 23.9579 21.1424 23.9228C21.1036 23.8903 21.0668 23.8557 21.0321 23.8193C20.9997 23.7854 20.9697 23.7496 20.9423 23.712C20.9178 23.6813 20.8892 23.6468 20.8687 23.6161C20.8459 23.5776 20.8255 23.538 20.8075 23.4973C20.7935 23.4712 20.7812 23.4443 20.7707 23.4168C20.7516 23.3637 20.7419 23.308 20.7421 23.2519C20.7407 23.2417 20.7407 23.2314 20.7421 23.2212V21.0053C20.9244 21.1279 21.1139 21.2405 21.3099 21.3427L21.4079 21.3887L21.6203 21.496L21.7715 21.5612L21.9308 21.6302L22.0901 21.6992L22.1677 21.7261C22.2943 21.7759 22.4291 21.8219 22.5762 21.8679C24.0706 22.3568 25.6317 22.6434 27.2123 22.719C27.3512 22.719 27.4941 22.7382 27.6208 22.742C27.7474 22.7459 27.7964 22.742 27.8863 22.742C28.1763 22.742 28.4663 22.742 28.7522 22.742C29.0382 22.742 29.3323 22.742 29.6223 22.742H29.8837C30.0267 22.742 30.1696 22.742 30.2922 22.719C31.8751 22.6434 33.4386 22.3581 34.9365 21.8718L35.3449 21.7222L35.4103 21.6992L35.5614 21.6341L35.733 21.5612L35.876 21.496L36.0965 21.3887L36.1905 21.3427C36.3864 21.2405 36.576 21.1279 36.7583 21.0053L36.7746 23.2212ZM36.7746 19.1153C36.7746 20.1619 33.7111 21.6264 28.7604 21.6264C23.8097 21.6264 20.7462 20.1657 20.7462 19.1191V16.8955C21.1667 17.1741 21.6188 17.4081 22.0942 17.5932C23.822 18.2833 26.1789 18.6629 28.7604 18.6629C31.3419 18.6629 33.6988 18.2795 35.4266 17.5932C35.9025 17.409 36.3546 17.1749 36.7746 16.8955V19.1153ZM34.9365 16.5351C33.3802 17.1562 31.1254 17.5127 28.7522 17.5127C26.379 17.5127 24.1243 17.1562 22.568 16.5351C21.4243 16.0751 20.738 15.5077 20.738 15.0016C20.738 13.955 23.7893 12.4981 28.7522 12.4981C33.7151 12.4981 36.7746 13.9588 36.7746 15.0093C36.7746 15.4923 36.0924 16.0751 34.9365 16.5351ZM9.31311 12.7857C7.88369 12.788 6.48707 13.1879 5.29972 13.9349C4.11238 14.6819 3.18761 15.7425 2.64227 16.9826C2.09694 18.2228 1.95551 19.5868 2.23586 20.9024C2.51621 22.2179 3.20576 23.426 4.21737 24.3738C5.22898 25.3217 6.51724 25.9668 7.91938 26.2277C9.32151 26.4886 10.7746 26.3536 12.095 25.8396C13.4153 25.3257 14.5438 24.4559 15.3377 23.3403C16.1316 22.2246 16.5553 20.9131 16.5553 19.5715C16.5531 17.7704 15.789 16.0438 14.431 14.7714C13.0729 13.4989 11.2321 12.7847 9.31311 12.7857ZM9.31311 25.2033C8.12588 25.201 6.96602 24.8685 5.9801 24.2477C4.99419 23.6269 4.22649 22.7457 3.77402 21.7155C3.32155 20.6853 3.20463 19.5523 3.43802 18.4597C3.67142 17.3672 4.24467 16.3641 5.08531 15.5772C5.92595 14.7904 6.99625 14.2551 8.16095 14.039C9.32564 13.8229 10.5325 13.9357 11.6288 14.3632C12.7252 14.7907 13.662 15.5136 14.3208 16.4406C14.9795 17.3677 15.3307 18.4572 15.3299 19.5715C15.3288 20.3121 15.1723 21.0452 14.8694 21.729C14.5664 22.4129 14.1229 23.034 13.5642 23.557C13.0055 24.0799 12.3425 24.4945 11.6131 24.777C10.8837 25.0595 10.1022 25.2043 9.31311 25.2033ZM8.2225 18.0763C8.22249 18.3465 8.33627 18.6057 8.53904 18.7974C8.7418 18.9892 9.01711 19.0979 9.30494 19.0999H9.35396C9.5247 19.1026 9.69459 19.1232 9.86046 19.1613C10.3633 19.272 10.8122 19.5373 11.1359 19.9151C11.4596 20.2928 11.6395 20.7612 11.6471 21.2459C11.6546 21.7306 11.4893 22.2037 11.1774 22.5901C10.8655 22.9765 10.425 23.254 9.92582 23.3784V23.574C9.92582 23.7265 9.86127 23.8727 9.74636 23.9806C9.63146 24.0884 9.47561 24.149 9.31311 24.149C9.15061 24.149 8.99477 24.0884 8.87986 23.9806C8.76496 23.8727 8.70041 23.7265 8.70041 23.574V23.3784C8.21121 23.2518 7.77974 22.9782 7.47209 22.5994C7.16444 22.2206 6.99759 21.7576 6.99708 21.2813C6.99388 21.1664 7.02748 21.0531 7.09355 20.9563C7.15962 20.8594 7.25511 20.7834 7.36769 20.738C7.48028 20.6926 7.60478 20.6799 7.72512 20.7016C7.84546 20.7233 7.95611 20.7783 8.04277 20.8596C8.15696 20.9678 8.22147 21.1137 8.2225 21.266C8.22249 21.5378 8.33727 21.7986 8.54168 21.9912C8.74609 22.1838 9.02349 22.2925 9.31311 22.2935C9.59135 22.2775 9.85262 22.1625 10.0436 21.9719C10.2346 21.7814 10.341 21.5296 10.341 21.2679C10.341 21.0063 10.2346 20.7545 10.0436 20.5639C9.85262 20.3734 9.59135 20.2584 9.31311 20.2424C9.13011 20.2416 8.94782 20.221 8.76985 20.1811C8.26419 20.0737 7.81164 19.81 7.48488 19.4323C7.15812 19.0545 6.97612 18.5846 6.96811 18.0981C6.9601 17.6116 7.12654 17.1367 7.44071 16.7496C7.75487 16.3625 8.19853 16.0858 8.70041 15.9639V15.5728C8.70041 15.4203 8.76496 15.2741 8.87986 15.1662C8.99477 15.0584 9.15061 14.9978 9.31311 14.9978C9.47561 14.9978 9.63146 15.0584 9.74636 15.1662C9.86127 15.2741 9.92582 15.4203 9.92582 15.5728V15.9831C10.4143 16.1095 10.8453 16.3826 11.1529 16.7606C11.4605 17.1386 11.6277 17.6007 11.6291 18.0763C11.6291 18.2288 11.5646 18.3751 11.4497 18.4829C11.3348 18.5908 11.1789 18.6514 11.0164 18.6514C10.8539 18.6514 10.6981 18.5908 10.5832 18.4829C10.4683 18.3751 10.4037 18.2288 10.4037 18.0763C10.4037 17.8048 10.2888 17.5445 10.0843 17.3525C9.87976 17.1605 9.60236 17.0527 9.31311 17.0527C9.02386 17.0527 8.74646 17.1605 8.54193 17.3525C8.3374 17.5445 8.2225 17.8048 8.2225 18.0763Z" fill="#76D3BE"/>
</svg>
