<svg width="45" height="48" viewBox="0 0 45 48" fill="none" xmlns="http://www.w3.org/2000/svg">
<path d="M1.77093 43.8945H27.7064C28.2495 43.8945 28.7398 44.3494 28.7845 44.9402V47.2468C28.784 47.2473 28.7834 47.2479 28.7828 47.2486C28.7821 47.2493 28.7815 47.2498 28.7809 47.2503H0.753533C0.752969 47.2498 0.752351 47.2493 0.751697 47.2486C0.751042 47.2479 0.750479 47.2473 0.75 47.2468V44.9155C0.75 44.3585 1.21399 43.8945 1.77093 43.8945Z" stroke="#76D3BE" stroke-width="1.5"/>
<path d="M25.6421 39.6527H3.83447V37.7748C3.83447 37.2179 4.29846 36.7539 4.8554 36.7539H24.6212C25.1782 36.7539 25.6421 37.2179 25.6421 37.7748V39.6527Z" stroke="#76D3BE" stroke-width="1.5"/>
<path d="M24.3905 6.60813C24.5531 6.81599 24.7229 7.00314 24.8895 7.1698C24.8898 7.17018 24.8902 7.17054 24.8906 7.17091L32.3721 14.7096L32.3741 14.7116C32.5699 14.9074 32.7655 15.0707 32.954 15.213C32.2236 16.5039 31.2893 17.801 30.2183 19.0667L29.7459 19.625L30.292 20.1113L42.802 31.2504C44.0727 32.3849 44.1303 34.3999 42.8855 35.6447C41.7053 36.8248 39.6899 36.7828 38.5482 35.5042L27.4092 22.9942L26.9318 22.4581L26.3753 22.9115C25.0605 23.9828 23.7586 24.917 22.5049 25.6482C22.364 25.4622 22.2025 25.2693 22.0095 25.0763L14.4688 17.5356C14.2805 17.3473 14.0924 17.189 13.9106 17.0506C15.0986 15.1022 16.6503 13.0449 18.5212 11.1733C20.4508 9.29507 22.4642 7.74703 24.3905 6.60813Z" stroke="#76D3BE" stroke-width="1.5"/>
<path d="M16.2406 30.9044L16.2386 30.9024L8.64272 23.3636C8.64242 23.3633 8.64211 23.363 8.64181 23.3627C7.85021 22.5702 7.85052 21.3319 8.64272 20.5397C9.43524 19.7472 10.6742 19.7472 11.4667 20.5397L11.4667 20.5397L11.4687 20.5417L19.0645 28.0804C19.0649 28.0808 19.0652 28.0811 19.0655 28.0814C19.857 28.874 19.8567 30.1122 19.0645 30.9044C18.272 31.6969 17.0331 31.6969 16.2406 30.9044Z" stroke="#76D3BE" stroke-width="1.5"/>
<path d="M38.2589 11.7091C37.4663 12.5016 36.2274 12.5016 35.4349 11.7091L27.8942 4.16834C27.1017 3.37582 27.1017 2.1369 27.8942 1.34438C28.6867 0.551872 29.9256 0.551872 30.7181 1.34438L38.2589 8.8851C39.0514 9.67762 39.0514 10.9165 38.2589 11.7091Z" stroke="#76D3BE" stroke-width="1.5"/>
</svg>
